<?xml version="1.0" encoding="UTF-8"?><svg class="{{ include.class }}"id="circuit_icon_svg" xmlns="http://www.w3.org/2000/svg" viewBox="0 0 100 100"><circle class="icon-dark" cx="50" cy="50" r="50"/><path class="icon-light" d="m61.78,23.41h27.59c-.15-.23-.31-.45-.47-.68h-26.84L42.43,3.1c-.27.04-.55.09-.82.14l20.17,20.17h0Z"/><path class="icon-light" d="m63.44,19.68h23.13c-.19-.23-.38-.45-.57-.68h-22.27L47.29,2.58c-.3.02-.6.04-.9.06l17.05,17.05h0Z"/><path class="icon-light" d="m68.49,12.23h10.33c-.3-.23-.6-.45-.91-.68h-9.14l-7.78-7.78c-.41-.1-.82-.19-1.23-.27l8.73,8.73h0Z"/><path class="icon-light" d="m28.58,22.85s0,0,0,0h9.94l15.64,15.64h0s17.48,0,17.48,0l24.16,24.16c.07-.25.14-.5.2-.75l-24.08-24.08h-17.48l-15.52-15.52s0,0,0,0l-.12-.12h-10.3l-8.78-8.78c-.17.14-.35.29-.52.44l9.01,9.01h.36Z"/><path class="icon-light" d="m42.65,42.57h27.88l24,24c.09-.23.17-.47.25-.7l-23.97-23.97h-27.88L16.94,15.89c-.16.16-.32.31-.48.47l26.2,26.2h0Z"/><path class="icon-light" d="m42.1,47.43h0s25.48,0,25.48,0l24.54,24.54c.11-.21.22-.42.32-.63l-24.58-24.58h-25.48l-22.76-22.76h0l-.68-.68h-8.25c-.15.22-.3.45-.45.68h8.42l23.44,23.44Z"/><path class="icon-light" d="m43.28,51.32h0s23.18,0,23.18,0l23.84,23.84c.12-.2.24-.39.36-.59l-23.92-23.92h-23.18l-21.53-21.53h0l-.68-.68H7.67c-.11.22-.23.45-.34.68h13.75l22.21,22.21Z"/><path class="icon-light" d="m43.62,56.57h0s20.28,0,20.28,0l23.15,23.15c.14-.18.28-.35.42-.53l-23.29-23.29h-20.28l-23.7-23.7h0s0,0,0,0H5.95c-.09.22-.18.45-.27.68h14.23l23.7,23.7Z"/><path class="icon-light" d="m40.85,63.56l-23.48-23.48h0s0,0,0,0H3.54c-.05.22-.09.45-.14.68h13.7l23.47,23.47h0s14.78,0,14.78,0l23.5,23.5c.18-.14.36-.28.54-.42l-23.75-23.75h-14.78Z"/><path class="icon-light" d="m40.85,83.92l-17.62-17.62v-5.59l-7.61-7.61h0l-.68-.68H2.56c.01.23.02.45.04.68h12.07l7.89,7.89v5.59l.15.15s0,0,0,0l17.87,17.87h0s20.28,0,20.28,0l8.7,8.7c.22-.1.44-.2.65-.3l-9.08-9.08h-20.28Z"/><path class="icon-light" d="m41.19,94.33l-24.05-24.05h0l-.68-.68h0s0,0,0,0H6.72c.1.23.21.45.31.68h9.15l24.72,24.72h0s14.78,0,14.78,0l1.89,1.89c.27-.04.55-.09.82-.14l-2.43-2.43h-14.78Z"/><path class="icon-light" d="m24.93,11.26s0,0,0,0h12.14l22.21,22.21h0s28.59,0,28.59,0l9.05,9.05c-.06-.39-.13-.77-.2-1.15l-8.57-8.57h0s0,0,0,0h-28.59l-22.21-22.21h0s-12.49,0-12.49,0l-.54-.54c-.19.12-.39.25-.58.38l.84.84h.36Z"/><path class="icon-light" d="m60.6,27.13h0s28.59,0,28.59,0l4.73,4.73c-.24-.57-.48-1.14-.74-1.7l-3.71-3.71h0s0,0,0,0h-28.59L39.35,4.93h0l-.68-.68h-1.49c-.74.21-1.48.43-2.21.68h3.41l22.21,22.21Z"/><path class="icon-light" d="m23.18,81.87l-.68-.68h0s0,0,0,0h-8.33c.2.23.4.45.6.68h7.45l13.43,13.43c.45.14.91.28,1.37.41l-13.84-13.84h0Z"/><path class="icon-light" d="m23.18,86.92l-.68-.68h0s0,0,0,0h-3.21c.27.23.54.45.82.68h2.11l4.49,4.49c.67.38,1.35.74,2.04,1.09l-5.57-5.57h0Z"/><path class="icon-light" d="m38.5,68.67l-6.07-6.07v-3.1l-16.32-16.32h0l-.68-.68h0s0,0,0,0H3.09c-.04.22-.07.45-.1.68h12.16l16.6,16.6v3.1l.13.13h0s6.34,6.34,6.34,6.34h0s14.78,0,14.78,0l21.41,21.41c.2-.12.4-.24.59-.36l-21.72-21.72h-14.78Z"/><g id="b"><path class="icon-light icon-h" d="m65.91,14.69h15.87c-.25-.23-.51-.45-.77-.68h-14.82l-11.26-11.26c-.35-.04-.7-.07-1.05-.1l12.03,12.03h0Z"/><path class="icon-light icon-h" d="m59.87,35.31l-19.44-19.44s0,0,0,0l-.16-.16h-7.13c-.16-1.89-1.74-3.38-3.68-3.38-2.04,0-3.69,1.65-3.69,3.69s1.65,3.69,3.69,3.69c1.91,0,3.49-1.46,3.67-3.33h6.86l19.61,19.61h0s14.78,0,14.78,0l22.4,22.4c.05-.27.09-.54.14-.82l-22.25-22.25h-14.78Zm-30.42-17.17c-1.17,0-2.13-.95-2.13-2.13s.95-2.13,2.13-2.13,2.13.95,2.13,2.13-.95,2.13-2.13,2.13Z"/><path class="icon-light icon-h" d="m42.1,60.29h0s17.88,0,17.88,0l13.32,13.32c-.85.68-1.39,1.72-1.39,2.89,0,2.04,1.65,3.69,3.69,3.69s3.69-1.65,3.69-3.69-1.65-3.69-3.69-3.69c-.62,0-1.2.15-1.72.42l-13.62-13.62h-17.88l-24.77-24.77h0s0,0,0,0H4.97c-.08.22-.15.45-.22.68h12.59l24.77,24.77Zm33.5,14.08c1.17,0,2.13.95,2.13,2.13s-.95,2.13-2.13,2.13-2.13-.95-2.13-2.13.95-2.13,2.13-2.13Z"/><path class="icon-light icon-h" d="m41.37,89.36l-27.1-27.1c.72-.67,1.18-1.63,1.18-2.7,0-2.04-1.65-3.69-3.69-3.69s-3.69,1.65-3.69,3.69,1.65,3.69,3.69,3.69c.73,0,1.4-.21,1.98-.57l27.36,27.36h0s17.48,0,17.48,0l5.38,5.38c.24-.07.49-.15.73-.23l-5.83-5.83h-17.48Zm-29.62-27.67c-1.17,0-2.13-.95-2.13-2.13s.95-2.13,2.13-2.13,2.13.95,2.13,2.13-.95,2.13-2.13,2.13Z"/><path class="icon-light icon-h" d="m26.37,59.6v2.88l.26.26h0s13.76,13.76,13.76,13.76h0s.47.47.47.47h5.7c.31,1.72,1.82,3.03,3.63,3.03,2.04,0,3.69-1.65,3.69-3.69s-1.65-3.69-3.69-3.69-3.68,1.65-3.69,3.68h-5.36l-14.09-14.09v-2.88l-.42-.42s0,0,0,0l-10.52-10.52h0l-.68-.68h0s0,0,0,0H2.56c-.01.22-.02.45-.03.68h12.62l11.22,11.22Zm23.82,14.58c1.17,0,2.13.95,2.13,2.13s-.95,2.13-2.13,2.13-2.13-.95-2.13-2.13.95-2.13,2.13-2.13Z"/><path class="icon-light icon-h" d="m39,26.2c-2.04,0-3.69,1.65-3.69,3.69s1.65,3.69,3.69,3.69,3.69-1.65,3.69-3.69-1.65-3.69-3.69-3.69Zm0,5.82c-1.17,0-2.13-.95-2.13-2.13s.95-2.13,2.13-2.13,2.13.95,2.13,2.13-.95,2.13-2.13,2.13Z"/><path class="icon-light icon-h" d="m85.12,42.58c2.04,0,3.69-1.65,3.69-3.69s-1.65-3.69-3.69-3.69-3.69,1.65-3.69,3.69,1.65,3.69,3.69,3.69Zm0-5.82c1.17,0,2.13.95,2.13,2.13s-.95,2.13-2.13,2.13-2.13-.95-2.13-2.13.95-2.13,2.13-2.13Z"/></g></svg>