<svg class="{{ include.class }}" id="circuit_svg" xmlns="http://www.w3.org/2000/svg" viewBox="0 0 100 100">
  <circle class="b" cx="50" cy="50" r="50" />
  <path class="icon-light" d="m44.69,8.63h0s18.43,0,18.43,0l18,18h0s10.22,0,10.22,0c-.24-.42-.47-.84-.72-1.25h-8.98L63.88,7.6s0,0,0,0l-.23-.23h-19.09l-3.94-3.94c-.49.1-.97.21-1.45.32l4.87,4.87h.66Z" />
  <path class="icon-light" d="m67.76,45.8h27.41l2.28,2.28c-.03-.63-.07-1.26-.12-1.89l-1.65-1.65h-27.4L30.45,6.71c-.41.18-.81.36-1.21.56l38.53,38.53h0Z" />
  <path class="icon-light" d="m31.96,42.16v10.36l.28.28h0s33.12,33.12,33.12,33.12h0s15.69,0,15.69,0c.47-.41.94-.83,1.4-1.25h-16.56l-32.67-32.67v-10.36l-14.11-14.11h0l-1.25-1.25h-9c-.24.42-.48.83-.71,1.25h9.19l14.63,14.63Z" />
  <path class="icon-light" d="m54.39,97.29c.53-.05,1.06-.11,1.59-.18L20.38,61.51h0l-1.25-1.25h0s0,0,0,0H3.62c.09.42.19.84.29,1.25h14.69l35.78,35.78Z" />
  <path class="icon-light" d="m24.27,79.69l-1.25-1.25h0s0,0,0,0h-11.07c.32.43.65.84.98,1.25h9.57l16.52,16.52c.74.18,1.49.33,2.25.47l-17-17h0Z" />
  <path class="icon-light" d="m46.89,40.75l.23.23h0s11.76,11.76,11.76,11.76h0s27.41,0,27.41,0l9.59,9.59c.13-.47.24-.94.35-1.42l-9.42-9.42h-27.4l-11.26-11.26v-5.75L23.95,10.29c-.36.23-.71.47-1.06.72l24,24v5.75Z" />
  <path class="icon-light icon-h" d="m63.41,25.3c1.57-1.25,2.59-3.19,2.59-5.35,0-3.78-3.06-6.84-6.84-6.84s-6.84,3.06-6.84,6.84,3.06,6.84,6.84,6.84c1.15,0,2.23-.29,3.19-.79l10.25,10.25h22.88c-.13-.42-.27-.84-.4-1.25h-21.96l-9.7-9.7Zm-4.26-1.41c-2.18,0-3.94-1.76-3.94-3.94s1.76-3.94,3.94-3.94,3.94,1.76,3.94,3.94-1.76,3.94-3.94,3.94Z" />
  <path class="icon-light icon-h" d="m20.35,43.04c0-3.78-3.06-6.84-6.84-6.84s-6.84,3.06-6.84,6.84,3.06,6.84,6.84,6.84c1.35,0,2.6-.39,3.66-1.06l46.64,46.64c.45-.14.89-.29,1.34-.44L18.17,48.05c1.34-1.25,2.18-3.03,2.18-5Zm-6.84,3.94c-2.18,0-3.94-1.76-3.94-3.94s1.76-3.94,3.94-3.94,3.94,1.76,3.94,3.94-1.76,3.94-3.94,3.94Z" />
  <path class="icon-light icon-h" d="m38.62,38.68v5.34l.47.47,25.52,25.52.87.87h10.57c.58,3.19,3.37,5.61,6.73,5.61,3.78,0,6.84-3.06,6.84-6.84s-3.06-6.84-6.84-6.84-6.83,3.05-6.84,6.82h-9.94l-26.13-26.13v-5.34l-.78-.78s0,0,0,0l-19.51-19.51h0l-1.25-1.25h0s0,0,0,0h-2.11c-.41.41-.8.83-1.19,1.25h2.79l20.81,20.81Zm44.16,27.04c2.18,0,3.94,1.76,3.94,3.94s-1.76,3.94-3.94,3.94-3.94-1.76-3.94-3.94,1.76-3.94,3.94-3.94Z" />
</svg>