<svg class="{{ include.class }}" id="cropcir_icon_svg" xmlns="http://www.w3.org/2000/svg" viewBox="0 0 100 100">
  <circle class="icon-dark" cx="50" cy="50" r="50" />
  <path class="icon-light" d="m81.31,65.07h-2.75c-.06.47-.14.92-.26,1.36h3.01c0-.45,0-.91,0-1.36Z" />
  <path class="icon-light" d="m95.05,65.07h-11.11c-.02.31-.02.63,0,.96,0,.13,0,.27.01.4h10.63c.17-.45.31-.91.47-1.36Z" />
  <path class="icon-light" d="m75.34,70.99c-.11.09-.21.19-.32.28h6.21c.04-.45.06-.91.07-1.36h-4.83c-.33.38-.71.74-1.13,1.08Z" />
  <path class="icon-light" d="m53.96,13.33c-.33-2.33-2.32-4.12-4.74-4.12-2.65,0-4.81,2.15-4.81,4.81s2.15,4.81,4.81,4.81c2.42,0,4.4-1.8,4.74-4.13h27.81c-.52-.46-1.04-.92-1.58-1.36h-26.24Zm-4.74,3.41c-1.51,0-2.73-1.22-2.73-2.73s1.22-2.73,2.73-2.73,2.73,1.22,2.73,2.73-1.22,2.73-2.73,2.73Z" />
  <path class="icon-light" d="m70.1,75.96h-.46c.15.14.3.29.46.43v-.43Z" />
  <path class="icon-light" d="m70.1,72.33h-3.73c.33.47.68.92,1.06,1.36h2.66v-1.36Z" />
  <path class="icon-light" d="m91.93,72.33h-17.9c-.33.43-.59.88-.8,1.36h17.94c.26-.45.52-.9.76-1.36Z" />
  <path class="icon-light" d="m41.48,84.65v1.36h39.47s0,0,0,0c.52-.44,1.02-.9,1.52-1.36h0s-40.99,0-40.99,0Z" />
  <path class="icon-light" d="m72.8,79.59c0,.45,0,.91,0,1.36h13.21s0,0,0,0c.39-.45.76-.9,1.13-1.36,0,0,0,0,0,0h-14.34Z" />
  <path class="icon-light" d="m38.65,86.02v-1.36h-21.12,0c.5.47,1,.92,1.52,1.36,0,0,0,0,0,0h19.6Z" />
  <path class="icon-light" d="m83.98,69.91c0,.45,0,.91-.01,1.36h8.5s0,0,0,0c.23-.45.45-.9.66-1.36,0,0,0,0,0,0h-9.14Z" />
  <path class="icon-light" d="m83.98,67.49c0,.45.01.91,0,1.36h9.61s0,0,0,0c.19-.45.38-.91.56-1.36,0,0,0,0,0,0h-10.18Z" />
  <path class="icon-light" d="m6.4,31.14c-.45,1.03-.86,2.09-1.23,3.16L34.3,5.17c-1.07.38-2.13.78-3.16,1.23L6.4,31.14Z" />
  <path class="icon-light" d="m75.36,65.07h-2.62v1.36h1.55c.39-.44.75-.89,1.07-1.36Z" />
  <path class="icon-light" d="m72.75,67.9c.17-.13.31-.28.47-.41h-.47v.41Z" />
  <path class="icon-light" d="m46.47,2.64c-.71.05-1.43.12-2.13.2L2.85,44.34c-.08.71-.15,1.42-.2,2.13L46.47,2.64Z" />
  <path class="icon-light" d="m77.26,68.85h4.05c0-.45,0-.91,0-1.36h-3.36c-.19.47-.42.93-.69,1.36Z" />
  <path class="icon-light" d="m38.65,80.96v-1.36H12.86s0,0,0,0c.37.46.75.92,1.13,1.36,0,0,0,0,0,0h24.66Z" />
  <path class="icon-light" d="m52.93,67.49h-11.45v1.36h11.45v-1.36Z" />
  <rect class="icon-light" x="67.8" y="65.07" width="2.29" height="1.36" />
  <path class="icon-light" d="m70.1,67.49h-6.23c.14.27.36.77.63,1.36h5.6v-1.36Z" />
  <path class="icon-light" d="m70.1,69.91h-5.11c.22.46.46.93.7,1.36h4.4v-1.36Z" />
  <path class="icon-light" d="m55.79,73.69h8.11c-.12-.44-.21-.89-.28-1.36h-7.84v1.36Z" />
  <path class="icon-light" d="m55.79,77.33h9.9c-.34-.44-.64-.89-.89-1.36h-9.01v1.36Z" />
  <path class="icon-light" d="m55.79,71.27h7.74c0-.11-.02-.22-.03-.33-.01-.34-.01-.69-.01-1.03h-7.7v1.36Z" />
  <path class="icon-light" d="m38.65,69.91h-22.24l-3.46-3.74v-10.4c2.32-.34,4.12-2.32,4.12-4.74,0-2.65-2.15-4.81-4.81-4.81s-4.81,2.15-4.81,4.81c0,2.42,1.8,4.4,4.13,4.74v10.96s4.3,4.54,4.3,4.54h22.77v-1.36Zm-29.12-18.88c0-1.51,1.22-2.73,2.73-2.73s2.73,1.22,2.73,2.73-1.22,2.73-2.73,2.73-2.73-1.22-2.73-2.73Z" />
  <path class="icon-light" d="m5.19,63.66c0-1.42-.63-2.68-1.61-3.57.37,1.7.83,3.36,1.37,4.98.14-.45.24-.92.24-1.42Z" />
  <path class="icon-light" d="m89.77,75.96h-17.05c-.01.29-.01.58,0,.88,0,.16,0,.32.02.48h16.1s0,0,0,0c.32-.45.63-.9.93-1.36Z" />
  <path class="icon-light" d="m38.65,77.33v-1.36H10.23c.3.46.61.91.93,1.36,0,0,0,0,0,0h27.49Z" />
  <path class="icon-light" d="m73.56,91.24H26.44c.84.48,1.68.94,2.55,1.36h42.02c.87-.43,1.71-.89,2.55-1.36Z" />
  <path class="icon-light" d="m52.93,72.33h-11.45v1.36h11.45v-1.36Z" />
  <path class="icon-light" d="m52.93,56.87l-15.3-15.96v-9.83c2.33-.33,4.12-2.32,4.12-4.74,0-2.65-2.15-4.81-4.81-4.81s-4.81,2.15-4.81,4.81c0,2.42,1.8,4.4,4.12,4.74v10.43s16.66,17.33,16.66,17.33v-1.98Zm-18.72-30.52c0-1.51,1.22-2.73,2.73-2.73s2.73,1.22,2.73,2.73-1.22,2.73-2.73,2.73-2.73-1.22-2.73-2.73Z" />
  <path class="icon-light" d="m38.65,67.49h-1.28l-12.08-13.08v-11.08c2.32-.33,4.12-2.32,4.12-4.74,0-2.65-2.15-4.81-4.81-4.81s-4.81,2.15-4.81,4.81c0,2.42,1.8,4.4,4.13,4.74v11.64s1.37,1.36,1.37,1.36l11.51,12.51h0s1.85,0,1.85,0v-1.36Zm-16.78-28.89c0-1.51,1.22-2.73,2.73-2.73s2.73,1.22,2.73,2.73-1.22,2.73-2.73,2.73-2.73-1.22-2.73-2.73Z" />
  <path class="icon-light" d="m8.84,73.69h29.81v-1.36H8.07c.25.46.5.91.76,1.36Z" />
  <path class="icon-light" d="m52.93,69.91h-11.45v1.36h11.45v-1.36Z" />
  <path class="icon-light" d="m41.48,77.33h11.45v-1.36h-11.45v1.36Z" />
  <path class="icon-light" d="m68,79.59h-26.52v1.36h27.54c-.29-.51-.62-.98-1.01-1.36Z" />
  <path class="icon-light" d="m60.22,66.43h5.08v-1.36h-4.51l-4.99-5.21v1.97l4.43,4.6h0s0,0,0,0h0s0,0,0,0Z" />
  <path class="icon-light" d="m55.79,68.85h7.73c.03-.56.09-1.04.17-1.36h-7.9v1.36Z" />
  <g>
    <rect class="icon-light icon-h" x="25.07" y="75.49" width="30" height="1.5" transform="translate(-36.16 116.31) rotate(-90)" />
    <rect class="icon-light icon-h" x="33.88" y="58.34" width="41" height="1.5" transform="translate(-4.71 113.48) rotate(-90)" />
    <path class="icon-light icon-h" d="m77.87,61.74c-.53,1.68-1.22,2.87-1.73,3.61-1.16,1.71-1.97,2.01-3.26,4.04-.34.53-.63.99-.87,1.46v-7.3h-1.11v16.31c-.32-1.08-.82-1.8-1.52-2.78-1.35-1.88-2.09-2.1-3.29-3.68-.52-.69-1.25-1.79-1.87-3.39.04,3.91,1.14,5.94,2.2,7.08,1.19,1.28,2.77,1.93,3.8,4.11.36.77.54,1.5.64,2.09l-.17,1.37h1.5l-.17-1.77v-8.09c.08-.36.19-.75.35-1.15.92-2.31,2.6-3.11,3.78-4.52,1.05-1.25,2.06-3.41,1.73-7.39Z" />
    <path class="icon-light icon-h" d="m87.97,54.4c-1.19,1.58-1.94,1.8-3.28,3.67-.7.98-1.2,1.7-1.52,2.77v-18.36c.1-.29.23-.59.4-.89.24-.43.43-.63.73-1.02.93-1.19,3.34-4.29,2.53-6.7-.08-.25-.24-.62-.58-1.02-.61.96-1.23,2.02-1.85,3.16-.45.84-.85,1.65-1.22,2.43.04-.08,0-.26,0-.34,0-.3,0-.61,0-.91,0-.63-.02-1.25.03-1.88.06-.72.18-1.43.36-2.12.16-.62.34-1.44.73-1.96.77-1.02,1.72-1.56,2.33-1.85-.39.05-.87.15-1.38.36-1.26.52-2.01,1.41-2.36,1.89.07-.31.13-.8-.02-1.36-.09-.33-.27-.99-.9-1.38-.43-.27-.88-.28-1.09-.27.13.11.3.28.44.53.26.47.26.91.24,1.12-.07-.19-.31-.78-.92-1.09-.19-.1-.38-.15-.53-.17.55,1.05.94,1.98,1.21,2.72.39,1.04.63,1.69.77,2.38v1.58s0-.01,0-.02c-.58-2.15-1.91-3.23-2.26-3.51-.61-.48-1.16-.7-1.51-.81.5,3.07,1.21,4.17,1.8,4.59.18.12.79.5,1.53,1.24.17.18.32.34.45.49v12.78c-.24-.47-.53-.92-.86-1.45-1.29-2.02-2.09-2.32-3.25-4.03-.51-.75-1.19-1.93-1.72-3.6-.34,3.97.67,6.12,1.72,7.37,1.18,1.4,2.85,2.2,3.77,4.5.16.4.27.79.35,1.15v16.15h0l-.22,1.77h1.5l-.17-1.77h-.01v-6c.08-.63.26-1.48.69-2.39,1.02-2.18,2.6-2.82,3.78-4.1,1.05-1.13,2.15-3.16,2.19-7.06-.62,1.6-1.34,2.69-1.86,3.38Z" />
    <rect class="icon-light icon-h" x="58" y="58.34" width="17.09" height="1.21" transform="translate(7.6 125.5) rotate(-90)" />
  </g>
</svg>