<?xml version="1.0" encoding="UTF-8"?><svg class="{{ include.class }}" id="cropcir_icon_svg" xmlns="http://www.w3.org/2000/svg" viewBox="0 0 100 100"><circle class="icon-dark" cx="50" cy="50" r="50"/><path class="icon-light" d="m79.91,86.86H20.09c.25.2.5.41.76.6h58.31c.26-.2.51-.4.76-.6Z"/><path class="icon-light" d="m84.14,82.98H15.86c.2.2.39.4.59.6h67.1c.2-.2.4-.4.59-.6Z"/><path class="icon-light" d="m89.67,76.08H10.33c.13.2.27.4.41.6h78.53c.14-.2.27-.4.41-.6Z"/><path class="icon-light" d="m92.15,71.86H7.85c.11.2.21.4.32.6h83.66c.11-.2.21-.4.32-.6Z"/><path class="icon-light" d="m87.79,78.74H12.21c.15.2.31.4.47.6h74.64c.16-.2.31-.4.47-.6Z"/><path class="icon-light" d="m94.25,67.24H5.75c.08.2.16.4.24.6h88.01c.08-.2.16-.4.24-.6Z"/><path class="icon-light" d="m95.28,64.32H4.72c.06.2.13.4.2.6h90.16c.07-.2.13-.4.2-.6Z"/><path class="icon-light" d="m95.92,62.08H4.08c.05.2.11.4.16.6h91.52c.06-.2.11-.4.16-.6Z"/><path class="icon-light" d="m28.72,41.83v-12.67c1.29-.15,2.28-1.24,2.28-2.57,0-1.43-1.16-2.58-2.58-2.58s-2.58,1.16-2.58,2.58c0,1.33,1,2.42,2.28,2.57v12.94l.6.6h0s13.56,13.54,13.56,13.54h0s0,0,0,0h0s0,0,0,0h54.79c.03-.2.05-.4.08-.6h-54.61s-13.81-13.81-13.81-13.81Zm-.3-13.83c-.77,0-1.4-.63-1.4-1.4s.63-1.4,1.4-1.4,1.4.63,1.4,1.4-.63,1.4-1.4,1.4Z"/><path class="icon-light" d="m31.28,6.36L6.36,31.28c-.21.48-.4.96-.59,1.45L32.73,5.76c-.49.19-.97.39-1.45.59Z"/><path class="icon-light" d="m17.79,52.86v-12.15c1.29-.15,2.28-1.24,2.28-2.57,0-1.43-1.16-2.58-2.58-2.58s-2.58,1.16-2.58,2.58c0,1.33,1,2.42,2.28,2.57v12.4l.6.6,4.67,4.67h0s0,0,0,0h0s0,0,0,0h74.28c.04-.2.07-.4.1-.6H22.71s-4.92-4.92-4.92-4.92Zm-.3-13.31c-.77,0-1.4-.63-1.4-1.4s.63-1.4,1.4-1.4,1.4.63,1.4,1.4-.63,1.4-1.4,1.4Z"/><path class="icon-light" d="m11.52,56v-9c1.29-.15,2.28-1.24,2.28-2.57,0-1.43-1.16-2.58-2.58-2.58s-2.58,1.16-2.58,2.58c0,1.33,1,2.42,2.28,2.57v9.26l.6.58,2.62,2.62h0s0,0,0,0h0s0,0,0,0h82.39c.04-.2.08-.4.12-.6H14.39c-.51-.51-2.02-2.01-2.87-2.85Zm-.3-10.16c-.77,0-1.4-.63-1.4-1.4s.63-1.4,1.4-1.4,1.4.63,1.4,1.4-.63,1.4-1.4,1.4Z"/><path class="icon-light" d="m6.34,57.79v-3.78c1.29-.15,2.28-1.24,2.28-2.57,0-1.43-1.16-2.58-2.58-2.58s-2.58,1.16-2.58,2.58c0,1.33,1,2.42,2.28,2.57v3.18h0s0,.85,0,.85l3.03,3.03h0s0,0,0,0h0s0,0,0,0h87.42c.05-.2.09-.4.14-.6H9.01l-2.67-2.67Zm-1.7-6.34c0-.77.63-1.4,1.4-1.4s1.4.63,1.4,1.4-.63,1.4-1.4,1.4-1.4-.63-1.4-1.4Z"/><path class="icon-light" d="m84.22,17.1c-.2-.2-.39-.4-.59-.6H28.72s0,0,0,0L3.2,42c-.06.34-.11.68-.16,1.02l25.92-25.92h55.26Z"/><path class="icon-light" d="m55.61,3.67c-1.43,0-2.58,1.16-2.58,2.58s1.16,2.58,2.58,2.58c1.33,0,2.42-1,2.57-2.28h10.99c-.47-.21-.95-.41-1.43-.6h-9.56c-.15-1.29-1.24-2.28-2.57-2.28Zm0,3.99c-.77,0-1.4-.63-1.4-1.4s.63-1.4,1.4-1.4,1.4.63,1.4,1.4-.63,1.4-1.4,1.4Z"/><path class="icon-light" d="m24,47.81v-12.69c1.29-.15,2.28-1.24,2.28-2.57,0-1.43-1.16-2.58-2.58-2.58s-2.58,1.16-2.58,2.58c0,1.33,1,2.42,2.28,2.57v12.08s0,.85,0,.85l.6.6,8.65,8.65h0s64.27,0,64.27,0c.03-.2.06-.4.09-.6H32.9s-8.9-8.9-8.9-8.9Zm-.3-13.85c-.77,0-1.4-.63-1.4-1.4s.63-1.4,1.4-1.4,1.4.63,1.4,1.4-.63,1.4-1.4,1.4Z"/><path class="icon-light" d="m47.6,8.84c-1.43,0-2.58,1.16-2.58,2.58s1.16,2.58,2.58,2.58c1.33,0,2.42-1,2.57-2.28h27.92c-.28-.2-.56-.41-.84-.6h-27.08c-.15-1.29-1.24-2.28-2.57-2.28Zm0,3.99c-.77,0-1.4-.63-1.4-1.4s.63-1.4,1.4-1.4,1.4.63,1.4,1.4-.63,1.4-1.4,1.4Z"/><path class="icon-light" d="m32.26,9.6c-1.01,1.01-1.01,2.65,0,3.66,1.01,1.01,2.65,1.01,3.66,0,.94-.94,1-2.41.2-3.43l6.77-6.77c-.34.05-.68.11-1.02.17l-6.17,6.17c-1.01-.8-2.49-.74-3.43.2Zm2.82,2.81c-.55.55-1.43.55-1.98,0-.55-.55-.55-1.43,0-1.98s1.43-.55,1.98,0,.55,1.43,0,1.98Z"/><g id="b"><rect id="c" class="icon-light icon-h" x="36.76" y="48.48" width="26.89" height=".3" transform="translate(1.57 98.84) rotate(-90)"/><rect id="d" class="icon-light icon-h" x="47.93" y="56.86" width="29.7" height=".3" transform="translate(5.76 119.79) rotate(-90)"/><path id="e" class="icon-light icon-h" d="m77.33,65.7c-.23.74-.54,1.27-.76,1.6-.51.76-.87.89-1.44,1.79-.15.23-.28.44-.38.64v-3.23h-.3v7.21c-.14-.48-.36-.8-.67-1.23-.59-.83-.93-.93-1.46-1.63-.23-.31-.55-.79-.83-1.5.02,1.73.5,2.63.97,3.13.52.57,1.23.85,1.68,1.82.19.4.27.78.3,1.06v3.38h.3v-7.27c.04-.16.08-.33.16-.51.4-1.02,1.15-1.38,1.67-2,.46-.55.91-1.51.76-3.27Z"/><path id="f" class="icon-light icon-h" d="m87.37,49.83c-.53.7-.86.8-1.46,1.63-.31.43-.53.75-.67,1.23v-8.14c.05-.13.1-.26.18-.39.11-.19.19-.28.32-.45.41-.53,1.48-1.9,1.12-2.97-.04-.11-.11-.27-.26-.45-.27.43-.55.89-.82,1.4-.2.37-.38.73-.54,1.08v-1.34c.04-.11.07-.23.09-.3.12-.42.1-.53.18-.8.12-.38.32-.64.41-.76.34-.45.76-.69,1.03-.82-.17.02-.39.07-.61.16-.56.23-.89.63-1.04.84.03-.14.06-.35-.01-.6-.04-.14-.12-.44-.4-.61-.19-.12-.39-.12-.48-.12.06.05.13.13.19.24.11.21.11.41.11.5-.03-.08-.14-.35-.41-.48-.09-.04-.17-.07-.24-.08.24.47.42.88.54,1.21.17.46.28.75.34,1.05v.7s0,0,0,0c-.26-.95-.85-1.43-1-1.56-.27-.21-.52-.31-.67-.36.22,1.36.54,1.85.8,2.03.08.05.35.22.68.55.08.08.14.15.2.22v5.67c-.1-.21-.23-.41-.38-.64-.57-.9-.93-1.03-1.44-1.79-.22-.33-.53-.85-.76-1.6-.15,1.76.3,2.72.76,3.27.52.62,1.27.98,1.67,2,.07.18.12.35.16.51v7.95h.3v-3.45c.04-.28.12-.66.3-1.06.45-.97,1.15-1.25,1.68-1.82.47-.5.95-1.4.97-3.13-.28.71-.59,1.19-.83,1.5Z"/><rect id="g" class="icon-light icon-h" x="65.89" y="52.77" width="7.58" height=".3" transform="translate(16.76 122.61) rotate(-90)"/></g></svg>