<?xml version="1.0" encoding="UTF-8"?><svg class="{{ include.class }}"id="graph_icon_svg" xmlns="http://www.w3.org/2000/svg" viewBox="0 0 100 100"><circle class="icon-dark" cx="50" cy="50" r="50"/><polygon class="icon-light" points="20.77 78.59 20.77 22.88 19.68 22.88 19.68 79.68 20.77 79.68 80.32 79.68 80.32 78.59 20.77 78.59"/><rect class="icon-light icon-h" x="25.4" y="42.84" width="7.24" height="31.31"/><rect class="icon-light icon-h" x="40.04" y="32.77" width="7.24" height="41.38"/><rect class="icon-light icon-h" x="54.69" y="44.02" width="7.24" height="30.13"/><rect class="icon-light icon-h" x="69.34" y="26.87" width="7.24" height="47.28"/><path class="icon-light" d="m44.72,19.77c-.05.13.04.21.15.29,3.4,2.61,6.8,5.22,10.2,7.83.89.69,1.78,1.37,2.67,2.06.07.06.13.05.21.04.17-.03.34-.05.52-.05.08,0,.12-.02.17-.08.7-.82,1.41-1.65,2.11-2.47,1.31-1.53,2.61-3.06,3.92-4.59,1.35-1.58,2.69-3.15,4.04-4.73,1.05-1.23,2.11-2.47,3.16-3.7.07-.08.1-.15.06-.26-.16-.57.19-1.17.77-1.31.57-.14,1.16.22,1.28.78.13.59-.23,1.16-.81,1.28-.12.02-.24.02-.36,0-.09,0-.15.01-.2.08-.71.84-1.42,1.67-2.13,2.5-1.25,1.47-2.5,2.93-3.76,4.4-1.25,1.46-2.49,2.92-3.74,4.38-1.19,1.4-2.39,2.8-3.59,4.2-.08.09-.1.17-.07.29.12.4-.04.84-.37,1.1-.35.27-.8.3-1.18.09-.37-.21-.58-.63-.53-1.05,0-.04-.02-.1-.06-.13-3.1-2.38-6.2-4.76-9.3-7.15-1.23-.94-2.45-1.88-3.68-2.83-.06-.05-.11-.06-.19-.03-.26.09-.53.09-.78-.02-.08-.03-.13-.02-.19.02-2.61,1.79-5.21,3.59-7.82,5.38-1.68,1.15-3.35,2.31-5.03,3.46-.1.07-.13.13-.13.25,0,.56-.44,1.02-1,1.05-.57.03-1.06-.4-1.11-.98-.05-.54.35-1.04.9-1.12.2-.03.39-.01.56.07.09.04.15.03.23-.03,1.7-1.17,3.41-2.35,5.11-3.52,2.57-1.77,5.14-3.53,7.71-5.3.11-.07.15-.15.15-.28.01-.6.49-1.05,1.09-1.03.57.01,1.02.49,1.01,1.1Z"/></svg>