<svg class="{{ include.class }}" id="leaf_icon_svg" xmlns="http://www.w3.org/2000/svg" viewBox="0 0 100 100">
  <circle class="icon-dark" cx="50" cy="50" r="50" />
  <g>
    <path class="icon-light icon-h" d="m69.45,58.97s0,0,0,0c-.65-1.37-1.31-2.75-2.12-4.03-.59-.93-1.21-1.84-1.85-2.74-1.55-2.16-3.26-4.2-5.11-6.12-1.68-1.74-3.49-3.37-5.39-4.86-1.24-.45-2.83-.81-4.65-.66-2.59.22-4.52,1.39-4.59,1.23-.07-.14,1.32-1.12,3.08-1.68,1.54-.5,2.95-.55,4.04-.47-.79-.56-1.59-1.09-2.4-1.6-5.22-3.28-10.21-5.13-14.14-6.22-1.03,1.7-1.84,3.56-2.39,5.56-.73,2.69-.95,5.36-.71,7.92,1.75,3.86,4.17,6.98,7.71,9.51,5.36,3.83,12.09,5.25,18.59,4.73,1.86-.15,3.7-.43,5.53-.82.73-.16,1.53-.33,2.3-.34.39.43.75.93,1.05,1.49.08.16.17.32.24.53.36-.29.72-.59,1.07-.9-.08-.18-.16-.35-.25-.51Z" />
    <path class="icon-light icon-h" d="m69.37,70.29c0,1.28-.06,2.51-.2,3.96-.23,2.42-.71,5.45-1.69,8.87.34-.63.81-1.58,1.28-2.79,1.18-3.04,1.93-6.33,2.09-9.59.02-.45.04-.89.06-1.33-.51.31-1.02.6-1.54.88Z" />
    <path class="icon-light icon-h" d="m36.36,31.73c5.02.75,8.88,2.21,11.41,3.36,8.49,3.87,13.54,9.61,16.25,12.77,2.02,2.35,3.59,4.57,4.76,6.43.13-.09.25-.17.36-.26.74-.59.91-1.44,1.22-2.92.25-1.22.55-5.55-2.42-10.85-.67-1.19-4.06-6.82-11.93-10.78-4.88-2.45-9.84-3.43-14.41-3.59-2.07,1.6-3.85,3.57-5.24,5.85Z" />
    <path class="icon-light icon-h" d="m19.32,32.68c.76-.08,3.27-.3,5.91.93.21.1.4.2.6.31.14-.46.29-.91.46-1.37.62-1.71,1.38-3.36,2.31-4.92.05-.08.1-.17.15-.25-3.19.84-5.42,1.78-6.17,2.1-4.79,2.08-8.8,4.99-8.75,5.08.04.07,2.26-1.55,5.5-1.88Z" />
  </g>
  <path class="icon-light" d="m32.02,59.42l-.2.21c-5.94,6.11-6.97,7.09-12.91,13.2-.72.74-1.03,1.63-.86,2.66.1.64.39,1.19.86,1.64,1.08,1.06,2.17,2.11,3.25,3.17,1.06,1.03,2.74,1.11,3.9.21.16-.12.31-.26.45-.4,5.92-6.08,6.93-7.05,12.85-13.13l.22-.22c5.26,3.4,11.01,4.96,17.26,4.59,4.41-.26,8.54-1.51,12.36-3.73,3.8-2.21,6.92-5.15,9.35-8.81,7.44-11.23,5.92-26.31-3.94-35.8-10.09-9.7-25.31-10.33-35.99-2.53-6.18,4.51-9.98,10.57-11.25,18.13-1.27,7.54.38,14.48,4.66,20.83Zm6.02,1.36c-9.6-9.33-9.86-24.61-.76-34.27,9.39-9.96,25.06-10.25,34.81-.79,9.63,9.35,9.92,24.68.71,34.37-9.48,9.98-25.12,10.09-34.76.69Z" />
  <path class="icon-light" d="m73.53,31.46c-4.88-7.66-13.95-11.42-22.66-9.7,8.47.12,16.66,3.57,22.66,9.7Z" />
</svg>